<?xml version="1.0" encoding="UTF-8" standalone="no"?>
<!DOCTYPE svg PUBLIC "-//W3C//DTD SVG 1.1//EN" "http://www.w3.org/Graphics/SVG/1.1/DTD/svg11.dtd">
<svg width="100%" height="100%" viewBox="0 0 2250 2250" version="1.1" xmlns="http://www.w3.org/2000/svg" xmlns:xlink="http://www.w3.org/1999/xlink" xml:space="preserve" xmlns:serif="http://www.serif.com/" style="fill-rule:evenodd;clip-rule:evenodd;stroke-linecap:round;stroke-linejoin:round;stroke-miterlimit:1.5;">
    <g>
        <g>
            <path d="M2155.87,892.521C2155.87,764.213 2051.7,660.043 1923.39,660.043L516.487,660.043C388.178,660.043 284.008,764.213 284.008,892.521L284.008,1357.48C284.008,1485.79 388.178,1589.96 516.487,1589.96L1923.39,1589.96C2051.7,1589.96 2155.87,1485.79 2155.87,1357.48L2155.87,892.521Z" style="fill:#fff;stroke:#000;stroke-width:12.5px;"/>
            <path d="M2155.87,892.521C2155.87,764.213 2051.7,660.043 1923.39,660.043L516.487,660.043C388.178,660.043 284.008,764.213 284.008,892.521L284.008,1357.48C284.008,1485.79 388.178,1589.96 516.487,1589.96L1923.39,1589.96C2051.7,1589.96 2155.87,1485.79 2155.87,1357.48L2155.87,892.521Z" style="fill:#fff;stroke:#000;stroke-width:12.5px;"/>
        </g>
        <g>
            <circle cx="706.02" cy="1128.65" r="617.105" style="fill:#fff;"/>
            <clipPath id="_clip1">
                <rect id="branding-circle_2018.svg" x="51.158" y="471.669" width="1317.03" height="1306.66"/>
            </clipPath>
            <g clip-path="url(#_clip1)">
                <g id="Ebene_2">
                    <g>
                        <path d="M845.525,723.322L854.513,690.829C855.896,686.335 854.167,684.261 851.056,683.224L845.525,681.841L833.081,726.779L838.612,728.162C841.723,728.853 844.143,727.816 845.525,723.322Z" style="fill:#ee7203;fill-rule:nonzero;"/>
                        <path d="M561.724,705.693C564.835,704.656 566.218,702.927 564.835,698.433L562.07,689.1C560.687,684.606 558.613,683.569 555.502,684.606L551.008,685.989L557.23,707.075L561.724,705.693Z" style="fill:#ee7203;fill-rule:nonzero;"/>
                        <path d="M898.76,742.335L911.896,711.224C913.624,707.075 912.587,704.656 909.476,703.273L904.291,701.199L886.315,744.063L891.501,746.137C894.266,747.52 896.686,746.828 898.76,742.335Z" style="fill:#ee7203;fill-rule:nonzero;"/>
                        <path d="M676.143,687.026C679.254,686.68 680.983,685.298 680.983,680.458L680.291,670.779C679.946,666.285 678.217,664.903 675.106,664.903L669.921,665.248L670.958,687.372L676.143,687.026Z" style="fill:#ee7203;fill-rule:nonzero;"/>
                        <path d="M704.489,624.458C426.218,624.458 200.49,850.186 200.49,1128.46L1208.49,1128.46C1208.49,850.186 982.76,624.458 704.489,624.458ZM898.068,688.754L912.933,694.977C922.266,698.779 924.686,706.038 920.883,715.717L908.093,746.137C903.945,755.816 897.377,758.927 887.698,755.125L872.834,748.902L898.068,688.754ZM837.921,670.088L853.476,674.236C863.501,677.001 866.612,683.569 863.846,693.94L855.204,725.742C852.439,735.767 846.217,739.915 836.192,737.149L820.637,733.001L837.921,670.088ZM770.168,708.112L775.353,674.582C777.081,664.211 782.958,659.026 792.982,660.755C803.007,662.137 807.155,669.051 805.427,679.076L804.39,685.298L794.711,683.915L795.748,677.001C796.439,672.508 794.711,670.434 791.6,669.742C788.489,669.397 786.069,670.779 785.377,675.273L780.192,710.187C779.501,714.68 781.229,716.754 784.34,717.1C787.452,717.446 789.871,716.409 790.563,711.569L792.291,699.816L787.797,699.125L789.18,689.792L803.353,691.866L800.242,712.261C798.513,722.631 792.637,727.816 782.612,726.088C772.933,725.051 768.439,718.137 770.168,708.112ZM717.279,654.878L727.649,655.224L725.23,705.347C724.884,709.841 726.958,711.915 730.415,711.915C733.526,711.915 735.946,710.532 735.946,705.693L738.02,655.569L747.699,655.915L745.625,705.347C745.279,715.717 739.748,721.594 729.723,720.903C719.699,720.557 714.859,714.335 715.205,703.964L717.279,654.878ZM674.415,655.915C684.785,655.224 689.97,660.755 690.662,671.125L691.007,679.421C691.699,689.792 686.859,695.668 676.489,696.359L671.649,696.705L673.032,721.248L662.662,721.94L659.205,656.952L674.415,655.915ZM606.316,663.174L610.81,690.829L622.218,689.1L617.724,661.446L628.094,659.718L638.464,724.014L628.094,725.742L623.6,698.088L612.193,699.816L616.687,727.47L606.662,729.199L596.292,664.903L606.316,663.174ZM553.082,675.619C562.761,672.853 569.329,677.001 572.094,686.68L574.514,694.977C577.279,705.001 574.168,711.915 564.144,714.68L559.65,716.063L566.563,739.569L556.884,742.335L538.563,679.767L553.082,675.619ZM493.971,696.705L498.465,711.224L503.996,708.804L499.502,694.631L507.107,691.174L511.601,705.693L516.094,703.619L518.168,710.532L513.675,712.606L518.86,728.853L523.354,726.779L525.428,733.693L520.934,735.767L526.465,753.742L518.86,757.199L513.329,739.223L507.798,741.643L513.329,759.618L505.724,763.075L500.193,745.1L496.045,746.828L493.971,739.915L498.119,738.186L492.934,721.94L488.786,723.668L486.712,716.754L490.86,715.026L486.366,700.853L493.971,696.705ZM429.329,853.297C502.959,779.668 600.44,739.223 704.489,739.223C808.538,739.223 906.019,779.668 979.648,853.297C1047.06,920.704 1086.81,1008.51 1092.68,1102.88L316.293,1102.88C322.169,1008.51 361.922,920.704 429.329,853.297Z" style="fill:#ee7203;fill-rule:nonzero;"/>
                        <path d="M511.601,731.964L506.415,715.372L500.539,717.791L506.07,734.384L511.601,731.964Z" style="fill:#ee7203;fill-rule:nonzero;"/>
                    </g>
                    <rect x="-1784.39" y="-43.391" width="4977.76" height="3491.35" style="fill:none;"/>
                    <rect x="-1784.39" y="-43.391" width="4977.76" height="3491.35" style="fill:none;"/>
                    <rect x="-1784.39" y="-43.391" width="4977.76" height="3491.35" style="fill:none;"/>
                    <rect x="-1784.39" y="-43.391" width="4977.76" height="3491.35" style="fill:none;"/>
                    <rect x="-1784.39" y="-43.391" width="4977.76" height="3491.35" style="fill:none;"/>
                    <rect x="-1784.39" y="-43.391" width="4977.76" height="3491.35" style="fill:none;"/>
                    <rect x="-1784.39" y="-43.391" width="4977.76" height="3491.35" style="fill:none;"/>
                    <g>
                        <path d="M558.958,1523.91L553.773,1521.84L537.872,1562.63L543.057,1564.7C545.823,1565.74 548.242,1565.05 549.625,1560.9L561.378,1531.17C562.761,1527.37 561.724,1525.3 558.958,1523.91Z" style="fill:#ee7203;fill-rule:nonzero;"/>
                        <path d="M607.008,1539.47L602.514,1538.43L598.02,1556.75L601.823,1557.79C605.279,1558.83 607.699,1557.79 609.082,1552.95L610.464,1547.07C611.156,1542.58 610.464,1540.16 607.008,1539.47Z" style="fill:#ee7203;fill-rule:nonzero;"/>
                        <path d="M759.452,1552.95C758.76,1548.45 757.032,1547.42 753.921,1547.76L748.39,1548.45L753.921,1592.01L759.452,1591.32C762.563,1590.97 763.945,1589.25 763.6,1584.75L759.452,1552.95Z" style="fill:#ee7203;fill-rule:nonzero;"/>
                        <path d="M251.651,1349.69C333.576,1517 505.724,1632.45 704.489,1632.45C903.599,1632.45 1075.4,1517 1157.33,1349.69L251.651,1349.69ZM570.02,1535.32L558.613,1564.01C555.156,1573 548.588,1576.45 539.6,1573L525.428,1567.47L547.897,1510.43L562.07,1515.96C571.403,1519.42 573.823,1526.33 570.02,1535.32ZM619.798,1548.11L618.761,1552.95C617.378,1559.17 614.267,1562.63 609.773,1563.32C613.921,1566.43 614.267,1571.27 612.884,1577.49L610.464,1586.83C609.773,1589.59 609.427,1592.01 609.773,1594.43L600.094,1592.01C600.094,1590.28 599.748,1589.25 601.131,1584.41L603.551,1575.07C604.934,1569.54 603.551,1567.12 599.403,1566.09L596.292,1565.39L590.415,1589.59L581.082,1587.17L595.946,1527.71L610.119,1531.17C619.106,1533.25 622.218,1538.78 619.798,1548.11ZM668.884,1549.84L652.291,1547.76L650.217,1564.7L663.353,1566.09L662.316,1574.73L649.18,1573.34L647.106,1591.32L663.699,1593.39L662.662,1602.04L636.736,1598.92L643.995,1538.09L669.921,1541.2L668.884,1549.84ZM703.452,1604.11C694.119,1604.11 688.933,1598.58 688.933,1588.9L688.933,1585.1L697.921,1585.1L697.921,1589.59C697.921,1594.09 699.995,1595.47 703.106,1595.47C706.217,1595.47 707.946,1593.74 707.946,1589.59C707.946,1585.1 705.872,1581.99 699.649,1576.45C691.353,1569.54 688.933,1564.36 688.933,1557.44C688.933,1547.76 693.427,1541.89 702.76,1541.89C712.094,1541.89 716.933,1547.42 717.279,1557.1L717.279,1559.17L708.291,1559.17L708.291,1556.75C708.291,1552.26 706.563,1550.88 703.452,1550.88C700.341,1550.88 698.612,1552.6 698.612,1557.1C698.612,1561.59 700.686,1564.7 706.909,1570.23C715.205,1577.15 717.625,1582.33 717.625,1589.25C717.625,1598.23 712.785,1604.11 703.452,1604.11ZM760.489,1599.62L745.279,1601.69L737.328,1540.85L752.538,1538.78C762.217,1537.39 767.402,1542.23 768.785,1551.91L772.587,1582.68C774.316,1592.7 770.168,1598.58 760.489,1599.62ZM802.661,1592.36L787.452,1532.9L813.032,1526.33L815.106,1534.97L798.859,1539.12L803.007,1555.72L815.797,1552.26L817.871,1560.9L805.081,1564.36L809.575,1581.64L825.822,1577.49L827.896,1586.13L802.661,1592.36ZM873.871,1569.54L846.562,1532.55L862.809,1573.69L854.859,1576.8L832.39,1519.76L843.451,1515.27L865.92,1545.69L852.439,1511.47L860.39,1508.36L882.859,1565.39L873.871,1569.54ZM979.648,1403.62C906.019,1477.25 808.538,1517.69 704.489,1517.69C600.44,1517.69 502.959,1477.25 429.329,1403.62C421.724,1396.01 414.465,1388.06 407.552,1380.11L1001.43,1380.11C994.513,1388.06 987.253,1396.01 979.648,1403.62Z" style="fill:#ee7203;fill-rule:nonzero;"/>
                    </g>
                    <path d="M942.315,1380.11C879.748,1442.68 798.168,1473.44 704.835,1473.44C610.81,1473.44 530.959,1442.68 468.391,1380.11L437.626,1379.77L445.23,1387.71C512.638,1458.23 602.514,1495.57 705.18,1495.57C807.847,1495.57 897.723,1458.23 965.13,1387.71L972.735,1379.77L970.315,1380.11L942.315,1380.11" style="fill-rule:nonzero;"/>
                    <path d="M622.909,1412.6L630.168,1412.6L630.168,1417.44L622.909,1417.44L622.909,1427.12L631.896,1427.12L631.896,1431.62L617.724,1431.62L617.724,1398.78L631.896,1398.78L631.896,1403.62L622.909,1403.62L622.909,1412.6" style="fill-rule:nonzero;"/>
                    <path d="M646.761,1398.43C651.946,1398.43 654.366,1401.54 654.366,1406.73L654.366,1407.77L649.526,1407.77L649.526,1406.38C649.526,1403.96 648.489,1403.27 647.106,1403.27C645.724,1403.27 644.687,1404.31 644.687,1406.38C644.687,1408.8 645.724,1410.53 649.18,1413.64C653.674,1417.44 654.711,1420.21 654.711,1424.01C654.711,1429.2 651.946,1432.31 647.106,1432.31C641.921,1432.31 639.501,1429.2 639.501,1424.01L639.501,1421.94L644.341,1421.94L644.341,1424.36C644.341,1426.78 645.378,1427.47 647.106,1427.47C648.835,1427.47 649.872,1426.78 649.872,1424.36C649.872,1421.94 648.835,1420.21 645.378,1417.1C640.884,1413.3 639.847,1410.53 639.847,1406.73C639.156,1401.54 641.575,1398.43 646.761,1398.43" style="fill-rule:nonzero;"/>
                    <path d="M660.588,1398.78L676.489,1398.78L676.489,1403.62L670.958,1403.62L670.958,1431.62L665.773,1431.62L665.773,1403.62L660.588,1403.62L660.588,1398.78" style="fill-rule:nonzero;"/>
                    <rect x="680.637" y="1426.78" width="4.839" height="4.839" style="fill-rule:nonzero;"/>
                    <path d="M713.822,1403.27C712.094,1403.27 711.057,1404.31 711.057,1406.38L711.057,1409.84L706.217,1409.84L706.217,1406.73C706.217,1401.54 708.983,1398.43 713.822,1398.43C719.007,1398.43 721.427,1401.54 721.427,1406.73C721.427,1411.22 719.699,1414.68 714.859,1419.86C711.748,1423.32 711.057,1424.7 711.057,1426.43L711.057,1427.12L720.736,1427.12L720.736,1431.96L705.872,1431.96L705.872,1427.81C705.872,1424.01 707.254,1421.25 711.057,1417.44C714.859,1413.3 716.242,1410.53 716.242,1407.07C716.242,1403.96 715.205,1403.27 713.822,1403.27" style="fill-rule:nonzero;"/>
                    <path d="M736.983,1398.43C731.797,1398.43 729.032,1401.54 729.032,1406.73L729.032,1424.01C729.032,1429.2 731.797,1432.31 736.983,1432.31C742.168,1432.31 744.933,1429.2 744.933,1424.01L744.933,1406.73C744.587,1401.54 741.822,1398.43 736.983,1398.43ZM739.402,1424.36C739.402,1426.78 738.365,1427.47 736.637,1427.47C734.908,1427.47 733.871,1426.43 733.871,1424.36L733.871,1406.73C733.871,1404.31 734.908,1403.62 736.637,1403.62C738.365,1403.62 739.402,1404.65 739.402,1406.73L739.402,1424.36Z" style="fill-rule:nonzero;"/>
                    <path d="M755.995,1402.92C760.143,1402.92 760.834,1400.85 761.526,1398.78L764.982,1398.78L764.982,1431.62L759.797,1431.62L759.797,1406.38L755.649,1406.38L755.649,1402.92" style="fill-rule:nonzero;"/>
                    <path d="M780.538,1421.25L780.538,1424.36C780.538,1426.78 781.575,1427.47 783.303,1427.47C785.032,1427.47 786.069,1426.78 786.069,1424.36L786.069,1417.1C786.069,1414.68 785.032,1413.99 783.303,1413.99C781.575,1413.99 780.538,1415.02 780.538,1417.1L780.538,1418.13L775.698,1418.13L776.736,1399.12L790.217,1399.12L790.217,1403.96L781.229,1403.96L780.884,1411.91C781.921,1410.53 783.303,1409.49 785.377,1409.49C789.18,1409.49 791.254,1412.26 791.254,1417.1L791.254,1424.36C791.254,1429.54 788.489,1432.65 783.649,1432.65C778.464,1432.65 776.044,1429.54 776.044,1424.36L776.044,1421.59L780.538,1421.25" style="fill-rule:nonzero;"/>
                    <path d="M704.489,506.237C361.231,506.237 82.269,785.199 82.269,1128.46C82.269,1471.71 361.231,1750.68 704.489,1750.68C1047.75,1750.68 1326.71,1471.71 1326.71,1128.46C1326.71,785.199 1047.75,506.237 704.489,506.237ZM704.489,1736.85C368.49,1736.85 96.096,1464.46 96.096,1128.46C96.096,792.458 368.49,520.064 704.489,520.064C1040.49,520.064 1312.88,792.458 1312.88,1128.46C1312.88,1464.46 1040.49,1736.85 704.489,1736.85Z" style="fill-rule:nonzero;"/>
                    <path d="M704.489,597.841C412.045,597.841 173.873,836.013 173.873,1128.46C173.873,1420.9 412.045,1659.07 704.489,1659.07C996.932,1659.07 1235.1,1420.9 1235.1,1128.46C1235.1,836.013 996.932,597.841 704.489,597.841ZM704.489,1705.39C386.119,1705.39 127.552,1446.48 127.552,1128.46C127.552,810.433 386.119,551.52 704.489,551.52C1022.86,551.52 1281.42,810.087 1281.42,1128.46C1281.42,1446.83 1022.86,1705.39 704.489,1705.39Z" style="fill-rule:nonzero;"/>
                    <path d="M623.946,877.495C630.168,877.495 628.785,889.248 628.785,889.248L619.798,889.248C619.798,889.248 617.724,877.495 623.946,877.495ZM650.909,1032.7L593.181,1032.7C593.872,1032.36 621.872,1015.77 621.872,1015.77C621.872,1015.77 650.217,1032.36 650.909,1032.7ZM647.106,1086.28L637.082,1086.28L637.082,1055.52C637.082,1055.52 638.464,1051.72 642.267,1051.72C646.069,1051.72 647.106,1056.21 647.106,1056.21L647.106,1086.28ZM630.514,1087.32L613.921,1087.32L613.921,1043.07C613.921,1043.07 615.65,1036.16 622.218,1036.16C628.44,1036.16 630.514,1043.07 630.514,1043.07L630.514,1087.32ZM607.353,1086.28L597.329,1086.28L597.329,1056.56C597.329,1056.56 598.711,1052.06 602.168,1052.06C605.971,1052.06 607.353,1055.86 607.353,1055.86L607.353,1086.28ZM611.847,861.939C618.069,861.939 616.687,873.692 616.687,873.692L607.699,873.692C607.699,873.692 605.625,861.939 611.847,861.939ZM679.254,1043.42C679.254,1043.42 681.328,1036.16 687.205,1036.16C693.081,1036.16 695.501,1043.07 695.501,1043.07L695.501,1088.01L679.254,1088.01L679.254,1043.42ZM731.797,1080.41L739.748,1080.41L739.748,1096.31L731.797,1096.31L731.797,1080.41ZM741.131,1029.25C744.242,1029.25 743.55,1043.07 743.55,1043.07L739.057,1043.07C739.402,1043.07 738.365,1029.25 741.131,1029.25ZM748.044,992.26L775.698,992.26L775.698,994.679L748.044,994.679L748.044,992.26ZM761.18,1043.07L756.686,1043.07C756.686,1043.07 755.649,1029.25 758.76,1029.25C761.526,1029.25 761.18,1043.07 761.18,1043.07ZM750.118,1080.41L758.069,1080.41L758.069,1096.31L750.118,1096.31L750.118,1080.41ZM768.785,1080.41L776.736,1080.41L776.736,1096.31L768.785,1096.31L768.785,1080.41ZM776.044,1027.17C780.538,1027.17 779.501,1043.07 779.501,1043.07L772.933,1043.07C772.933,1043.07 771.55,1027.17 776.044,1027.17ZM787.106,1079.03L795.056,1079.03L795.056,1096.31L787.106,1096.31L787.106,1079.03ZM793.328,1025.1C797.476,1025.1 796.785,1043.07 796.785,1043.07L790.563,1043.07C790.563,1043.07 789.18,1025.1 793.328,1025.1ZM810.612,1021.3C817.526,1021.3 816.143,1043.07 816.143,1043.07L806.118,1043.07C805.772,1043.07 803.698,1021.3 810.612,1021.3ZM838.612,1070.38L854.859,1070.38L854.859,1096.31L838.612,1096.31L838.612,1070.38ZM805.772,1079.03L813.723,1079.03L813.723,1096.31L805.772,1096.31L805.772,1079.03ZM878.711,1079.03L886.661,1079.03L886.661,1096.31L878.711,1096.31L878.711,1079.03ZM884.241,1021.64C891.155,1021.64 888.735,1043.42 888.735,1043.42L878.711,1043.42C878.711,1043.42 877.328,1021.64 884.241,1021.64ZM897.031,1079.03L904.982,1079.03L904.982,1096.31L897.031,1096.31L897.031,1079.03ZM901.525,1025.44C905.673,1025.44 904.291,1043.42 904.291,1043.42L898.068,1043.42C898.068,1043.42 897.377,1025.44 901.525,1025.44ZM918.809,1027.52C923.303,1027.52 921.92,1043.42 921.92,1043.42L915.352,1043.42C915.352,1043.42 914.315,1027.52 918.809,1027.52ZM915.698,1080.41L923.649,1080.41L923.649,1096.31L915.698,1096.31L915.698,1080.41ZM936.093,1029.59C939.204,1029.59 938.167,1043.42 938.167,1043.42L933.673,1043.42C933.673,1043.42 932.982,1029.59 936.093,1029.59ZM934.019,1080.41L941.97,1080.41L941.97,1096.31L934.019,1096.31L934.019,1080.41ZM953.377,1029.59C956.488,1029.59 955.451,1043.42 955.451,1043.42L950.957,1043.42C950.957,1043.42 950.266,1029.59 953.377,1029.59ZM952.686,1080.41L960.636,1080.41L960.636,1096.31L952.686,1096.31L952.686,1080.41ZM564.835,1088.01L548.588,1088.01L548.588,1043.07C548.588,1043.07 551.008,1036.16 556.884,1036.16C562.761,1036.16 564.835,1043.42 564.835,1043.42L564.835,1088.01ZM519.897,1051.37L519.205,1051.37L517.131,1033.39L519.897,1033.39L519.897,1051.37ZM502.267,969.099L496.045,969.099C496.045,969.099 494.662,959.075 498.81,959.075C503.304,959.075 502.267,969.099 502.267,969.099ZM502.267,1039.96L496.045,1039.96C496.045,1039.96 494.662,1017.49 498.81,1017.49C502.959,1017.49 502.267,1039.96 502.267,1039.96ZM704.835,783.125C794.019,783.125 878.019,815.964 941.97,875.421C1004.88,934.186 1042.56,1016.8 1048.44,1102.88L1070.56,1102.88C1064.68,1010.58 1024.24,922.087 956.834,859.519C888.735,796.26 799.205,761.347 704.835,761.347C610.119,761.347 520.588,796.26 452.49,859.519C384.391,922.778 343.601,1009.2 338.416,1102.18L338.416,1102.88L360.194,1102.88C365.379,1015.42 403.403,934.877 467.354,875.421C509.527,836.013 560.687,808.705 616.341,794.186C616.341,799.026 616.687,813.89 616.341,814.581C615.65,815.618 614.958,820.458 614.958,820.458L603.551,830.137L603.551,844.655L596.292,849.495L600.44,849.495L600.44,885.445L597.329,885.445L597.329,892.013L600.094,892.013L600.094,904.803L584.193,920.013L579.008,920.013L575.897,912.408L573.131,921.05L575.897,921.05L575.897,929.001L567.255,944.902L567.255,968.754C569.674,968.754 568.637,972.556 568.637,972.556L565.526,986.383L562.415,986.383L562.415,973.593L559.995,973.593L559.995,992.951L556.193,1002.28L546.514,1002.28L546.514,983.618L547.551,983.618L547.551,972.902L546.514,974.284L544.094,978.433L544.094,969.445L546.514,969.445L546.514,962.877L544.094,962.877L539.946,942.482L535.798,962.877L533.033,962.877L533.033,969.445L535.452,969.445C535.798,969.445 535.452,978.087 535.452,978.087L530.613,971.865L530.613,983.963L532.341,983.963L532.341,1002.63L519.897,1002.63L519.897,1025.1L513.675,1025.1L513.675,1002.63L515.403,1000.21L515.403,988.457L504.687,978.087L504.687,960.112L508.489,960.112C508.489,960.112 505.724,953.889 503.996,953.544L499.848,906.532L499.848,901.692L502.613,901.692L502.613,900.309L499.848,900.309L499.848,896.161L499.156,896.161L499.156,900.309L496.391,900.309L496.391,901.346L499.156,901.346L499.156,906.186L495.008,953.198C492.934,953.544 490.514,959.766 490.514,959.766L494.317,959.766L494.317,977.741L483.601,988.112L483.601,999.865L485.329,1002.28L485.329,1024.75L477.724,1024.75L477.724,1033.74L481.872,1033.39L480.144,1046.88C480.144,1046.88 477.724,1048.26 477.724,1045.15C477.378,1042.38 477.724,1011.62 477.724,1011.62L477.724,1003.32C477.724,1003.32 464.934,974.63 444.885,972.902L444.885,962.531L449.379,962.531L449.379,960.803L444.885,960.803L444.885,955.964L442.465,955.964L442.465,960.803L437.971,960.803L437.971,962.531L442.465,962.531L442.465,972.902C421.379,973.247 407.897,1004.01 407.897,1004.01L407.897,1008.16C412.737,1006.78 424.835,1003.32 433.477,1003.32L465.28,1003.32L465.28,1005.74L433.477,1005.74C424.835,1005.74 412.045,1009.2 407.897,1010.58L407.897,1014.38C412.737,1013 424.835,1009.54 433.477,1009.54L465.28,1009.54L465.28,1011.96L433.477,1011.96C424.835,1011.96 412.045,1015.42 407.897,1016.8L407.897,1020.61C412.737,1019.22 424.835,1015.77 433.477,1015.77L465.28,1015.77L465.28,1018.19L433.477,1018.19C424.835,1018.19 412.045,1021.64 407.897,1023.02L407.897,1035.47L399.255,1054.48L423.453,1054.48L423.453,1044.8L428.292,1044.8L428.292,1054.48L430.021,1054.48L430.021,1044.8L433.477,1044.8L433.477,1054.48L435.551,1054.48L435.551,1046.18L440.391,1046.18L440.391,1054.48L462.514,1054.48L462.514,1060.7L397.181,1060.7L397.181,1059.32L396.49,1061.05L396.49,1102.88L1024.24,1102.88L1024.24,1088.36L1010.76,1088.36L1010.76,1023.02L964.784,1023.02C953.031,1017.15 939.55,1015.07 939.55,1015.07C926.414,1013 898.414,1009.54 859.353,1008.85C804.39,1008.16 766.365,1015.77 766.02,1016.11L765.674,1013.69C766.02,1013.69 804.044,1005.74 859.353,1006.43C898.068,1006.78 926.068,1010.58 939.55,1012.65L939.55,999.173C939.55,999.173 911.896,993.642 883.204,990.531L885.624,980.161L879.056,980.161L878.711,975.321C878.711,975.321 879.748,975.667 880.093,974.976C880.439,974.284 880.093,972.902 879.748,972.902C879.402,972.902 879.402,973.247 878.711,971.519C878.365,969.791 878.019,968.754 877.673,968.408C877.328,968.062 877.673,966.68 877.328,966.334C876.982,966.334 876.636,967.371 876.636,967.717C876.636,968.062 875.599,969.791 875.599,970.828C875.599,971.865 873.18,977.741 872.488,978.433C871.797,979.124 866.957,978.778 866.957,978.778L866.957,972.902L863.155,972.902C863.155,972.902 857.97,967.717 860.735,965.642C863.501,963.568 865.92,961.494 865.92,961.494C865.92,961.494 867.303,959.42 865.92,958.038C864.538,956.655 862.118,958.383 861.772,958.729C861.427,959.075 860.044,961.149 859.007,961.149C857.97,961.149 857.624,960.457 857.278,960.112C856.933,959.766 857.278,952.852 857.278,952.852L852.439,952.852L852.439,952.161L851.056,952.161L851.056,953.544L846.217,953.544L846.217,960.803C846.217,961.149 845.525,961.84 844.488,961.84C843.451,961.84 842.414,960.112 841.723,959.42C841.377,959.075 838.958,957.346 837.575,958.729C836.192,960.112 837.575,962.186 837.575,962.186C837.575,962.186 839.995,964.26 842.76,966.334C845.525,968.408 840.34,973.593 840.34,973.593L836.538,973.593L836.538,979.47C836.538,979.47 831.698,979.815 831.007,979.124C830.316,978.433 827.896,972.556 827.896,971.519C827.896,970.482 826.859,968.754 826.859,968.408C826.859,968.062 826.513,966.68 826.167,967.025C825.822,967.025 826.167,968.754 825.822,969.099C825.476,969.445 825.13,970.482 824.785,972.21C824.439,973.939 824.439,973.247 823.748,973.593C823.056,973.939 822.711,974.976 823.402,975.667C823.748,976.359 824.785,976.013 824.785,976.013L824.439,980.852L817.871,980.852L820.291,990.877C801.279,992.605 785.377,995.371 779.847,996.408L779.847,976.013L781.575,976.013L781.575,972.902L779.155,972.902L771.896,956.655L771.896,925.544L768.094,934.877L763.945,925.198C766.365,924.161 768.094,922.087 768.094,919.667C768.094,916.556 765.674,914.136 762.217,913.791L762.217,898.927L760.143,898.927L760.143,913.791C756.686,914.136 753.921,916.556 753.921,919.667C753.921,922.433 755.995,924.852 759.106,925.544L759.106,926.927L755.995,935.914L752.884,935.914L752.884,925.89L749.081,925.89L749.081,933.84C749.081,944.902 751.847,944.902 751.847,944.902L751.847,957.001L745.279,972.21L742.859,972.21L742.859,974.63L745.279,974.63L745.279,1001.59L741.822,1001.59L741.822,996.408C741.822,992.605 738.365,993.642 738.02,993.642C737.674,993.642 734.908,1000.56 734.908,1000.56L723.501,1000.56C721.427,1000.56 716.588,1002.63 716.588,1002.63L704.143,1002.63L704.143,983.963L705.872,983.963L705.872,971.865L701.032,978.087C701.032,978.087 700.686,969.445 701.032,969.445L703.452,969.445L703.452,962.877L700.686,962.877L696.538,942.482L692.39,962.877L689.97,962.877L689.97,969.445L692.39,969.445L692.39,978.087L689.97,973.939L689.97,1001.94L680.291,1001.94L676.489,992.605L676.489,973.247L674.069,973.247L674.069,986.037L670.958,986.037L667.847,972.21C667.847,972.21 666.81,968.408 669.23,968.408L669.23,944.556L660.588,928.655L660.588,921.05L663.353,921.05L660.588,911.717L657.477,919.322L652.291,919.322L636.39,904.112L636.39,891.322L639.156,891.322L639.156,884.754L636.39,884.754L636.39,848.803L640.538,848.803L633.279,843.964L633.279,829.445L621.872,819.766C621.872,819.766 621.18,814.927 620.489,813.89C619.798,813.199 620.489,796.26 620.489,792.458C647.452,786.581 675.798,783.125 704.835,783.125Z" style="fill-rule:nonzero;"/>
                    <path d="M267.898,1187.57L267.898,1232.85L277.922,1232.85C284.49,1232.85 288.293,1229.74 288.293,1220.41L288.293,1200.36C288.293,1190.68 284.49,1187.91 277.922,1187.91L267.898,1187.91L267.898,1187.57ZM309.379,1201.39L309.379,1218.68C309.379,1240.11 299.009,1251.86 277.922,1251.86L267.898,1251.86L267.898,1301.99L246.811,1301.99L246.811,1168.21L277.922,1168.21C299.009,1168.21 309.379,1179.96 309.379,1201.39Z" style="fill-rule:nonzero;"/>
                    <path d="M267.898,1187.57L267.898,1232.85L277.922,1232.85C284.49,1232.85 288.293,1229.74 288.293,1220.41L288.293,1200.36C288.293,1190.68 284.49,1187.91 277.922,1187.91L267.898,1187.91L267.898,1187.57ZM309.379,1201.39L309.379,1218.68C309.379,1240.11 299.009,1251.86 277.922,1251.86L267.898,1251.86L267.898,1301.99L246.811,1301.99L246.811,1168.21L277.922,1168.21C299.009,1168.21 309.379,1179.96 309.379,1201.39Z" style="fill-rule:nonzero;"/>
                    <path d="M267.898,1187.57L267.898,1232.85L277.922,1232.85C284.49,1232.85 288.293,1229.74 288.293,1220.41L288.293,1200.36C288.293,1190.68 284.49,1187.91 277.922,1187.91L267.898,1187.91L267.898,1187.57ZM309.379,1201.39L309.379,1218.68C309.379,1240.11 299.009,1251.86 277.922,1251.86L267.898,1251.86L267.898,1301.99L246.811,1301.99L246.811,1168.21L277.922,1168.21C299.009,1168.21 309.379,1179.96 309.379,1201.39Z" style="fill-rule:nonzero;"/>
                    <path d="M340.144,1301.99L319.058,1301.99L319.058,1168.21L340.144,1168.21L340.144,1225.59L363.996,1225.59L363.996,1168.21L385.428,1168.21L385.428,1301.99L363.996,1301.99L363.996,1244.61L340.144,1244.61L340.144,1301.99" style="fill-rule:nonzero;"/>
                    <path d="M421.379,1187.57L421.379,1232.85L431.403,1232.85C437.971,1232.85 441.774,1229.74 441.774,1220.41L441.774,1200.36C441.774,1190.68 437.971,1187.91 431.403,1187.91L421.379,1187.91L421.379,1187.57ZM462.86,1201.39L462.86,1218.68C462.86,1240.11 452.49,1251.86 431.403,1251.86L421.379,1251.86L421.379,1301.99L400.292,1301.99L400.292,1168.21L431.403,1168.21C452.49,1168.21 462.86,1179.96 462.86,1201.39Z" style="fill-rule:nonzero;"/>
                    <path d="M421.379,1187.57L421.379,1232.85L431.403,1232.85C437.971,1232.85 441.774,1229.74 441.774,1220.41L441.774,1200.36C441.774,1190.68 437.971,1187.91 431.403,1187.91L421.379,1187.91L421.379,1187.57ZM462.86,1201.39L462.86,1218.68C462.86,1240.11 452.49,1251.86 431.403,1251.86L421.379,1251.86L421.379,1301.99L400.292,1301.99L400.292,1168.21L431.403,1168.21C452.49,1168.21 462.86,1179.96 462.86,1201.39Z" style="fill-rule:nonzero;"/>
                    <path d="M421.379,1187.57L421.379,1232.85L431.403,1232.85C437.971,1232.85 441.774,1229.74 441.774,1220.41L441.774,1200.36C441.774,1190.68 437.971,1187.91 431.403,1187.91L421.379,1187.91L421.379,1187.57ZM462.86,1201.39L462.86,1218.68C462.86,1240.11 452.49,1251.86 431.403,1251.86L421.379,1251.86L421.379,1301.99L400.292,1301.99L400.292,1168.21L431.403,1168.21C452.49,1168.21 462.86,1179.96 462.86,1201.39Z" style="fill-rule:nonzero;"/>
                    <path d="M522.317,1168.21L522.317,1271.22C522.317,1280.9 526.465,1284.36 533.378,1284.36C539.946,1284.36 544.44,1280.9 544.44,1271.22L544.44,1168.21L564.144,1168.21L564.144,1270.18C564.144,1291.62 553.428,1303.71 532.687,1303.71C511.946,1303.71 501.23,1291.62 501.23,1270.18L501.23,1168.21L522.317,1168.21" style="fill-rule:nonzero;"/>
                    <path d="M606.316,1166.83C626.711,1166.83 637.427,1178.93 637.427,1200.36L637.427,1204.51L617.724,1204.51L617.724,1198.98C617.724,1189.3 613.921,1185.84 607.353,1185.84C600.785,1185.84 596.983,1189.64 596.983,1198.98C596.983,1208.65 601.131,1215.91 614.958,1228.01C632.588,1243.57 638.119,1254.63 638.119,1269.84C638.119,1291.27 627.403,1303.37 606.662,1303.37C585.921,1303.37 575.205,1291.27 575.205,1269.84L575.205,1261.54L594.909,1261.54L594.909,1271.22C594.909,1280.9 599.057,1284.36 605.971,1284.36C612.884,1284.36 617.032,1280.9 617.032,1271.22C617.032,1261.54 612.884,1254.28 599.057,1242.18C581.428,1226.63 575.897,1215.57 575.897,1200.36C575.551,1178.93 585.921,1166.83 606.316,1166.83" style="fill-rule:nonzero;"/>
                    <path d="M670.612,1224.56L699.649,1224.56L699.649,1243.91L670.612,1243.91L670.612,1282.98L706.909,1282.98L706.909,1301.99L649.526,1301.99L649.526,1168.21L706.909,1168.21L706.909,1187.57L670.612,1187.57L670.612,1224.56" style="fill-rule:nonzero;"/>
                    <path d="M741.131,1187.57L741.131,1228.7L749.427,1228.7C757.378,1228.7 761.871,1225.25 761.871,1214.53L761.871,1201.05C761.871,1191.37 758.76,1187.22 751.155,1187.22L741.131,1187.57ZM763.945,1301.99C762.908,1298.53 761.871,1296.46 761.871,1285.39L761.871,1264.31C761.871,1251.86 757.723,1247.37 748.044,1247.37L740.785,1247.37L740.785,1301.99L719.699,1301.99L719.699,1168.21L751.501,1168.21C773.279,1168.21 782.612,1178.23 782.612,1198.98L782.612,1209.35C782.612,1223.17 778.118,1231.81 768.785,1236.31L768.785,1236.65C779.155,1241.15 782.612,1250.83 782.612,1265L782.612,1285.74C782.612,1292.31 782.958,1297.15 785.032,1301.99L763.945,1301.99Z" style="fill-rule:nonzero;"/>
                    <path d="M741.131,1187.57L741.131,1228.7L749.427,1228.7C757.378,1228.7 761.871,1225.25 761.871,1214.53L761.871,1201.05C761.871,1191.37 758.76,1187.22 751.155,1187.22L741.131,1187.57ZM763.945,1301.99C762.908,1298.53 761.871,1296.46 761.871,1285.39L761.871,1264.31C761.871,1251.86 757.723,1247.37 748.044,1247.37L740.785,1247.37L740.785,1301.99L719.699,1301.99L719.699,1168.21L751.501,1168.21C773.279,1168.21 782.612,1178.23 782.612,1198.98L782.612,1209.35C782.612,1223.17 778.118,1231.81 768.785,1236.31L768.785,1236.65C779.155,1241.15 782.612,1250.83 782.612,1265L782.612,1285.74C782.612,1292.31 782.958,1297.15 785.032,1301.99L763.945,1301.99Z" style="fill-rule:nonzero;"/>
                    <path d="M741.131,1187.57L741.131,1228.7L749.427,1228.7C757.378,1228.7 761.871,1225.25 761.871,1214.53L761.871,1201.05C761.871,1191.37 758.76,1187.22 751.155,1187.22L741.131,1187.57ZM763.945,1301.99C762.908,1298.53 761.871,1296.46 761.871,1285.39L761.871,1264.31C761.871,1251.86 757.723,1247.37 748.044,1247.37L740.785,1247.37L740.785,1301.99L719.699,1301.99L719.699,1168.21L751.501,1168.21C773.279,1168.21 782.612,1178.23 782.612,1198.98L782.612,1209.35C782.612,1223.17 778.118,1231.81 768.785,1236.31L768.785,1236.65C779.155,1241.15 782.612,1250.83 782.612,1265L782.612,1285.74C782.612,1292.31 782.958,1297.15 785.032,1301.99L763.945,1301.99Z" style="fill-rule:nonzero;"/>
                    <path d="M828.242,1227.67L857.624,1227.67L857.624,1270.18C857.624,1291.62 846.908,1303.71 826.167,1303.71C805.427,1303.71 794.711,1291.62 794.711,1270.18L794.711,1200.7C794.711,1179.27 805.427,1167.17 826.167,1167.17C846.908,1167.17 857.624,1179.27 857.624,1200.7L857.624,1213.84L837.921,1213.84L837.921,1199.67C837.921,1189.99 833.772,1186.53 826.859,1186.53C819.945,1186.53 816.143,1190.33 816.143,1199.67L816.143,1271.91C816.143,1281.59 820.291,1285.05 826.859,1285.05C833.427,1285.05 837.921,1281.59 837.921,1271.91L837.921,1247.37L828.242,1247.37L828.242,1227.67" style="fill-rule:nonzero;"/>
                    <path d="M892.192,1187.57L892.192,1228.7L900.488,1228.7C908.439,1228.7 912.933,1225.25 912.933,1214.53L912.933,1201.05C912.933,1191.37 909.822,1187.22 902.217,1187.22L892.192,1187.57ZM915.352,1301.99C914.315,1298.53 913.278,1296.46 913.278,1285.39L913.278,1264.31C913.278,1251.86 909.13,1247.37 899.451,1247.37L892.192,1247.37L892.192,1301.99L871.106,1301.99L871.106,1168.21L902.908,1168.21C924.686,1168.21 934.019,1178.23 934.019,1198.98L934.019,1209.35C934.019,1223.17 929.525,1231.81 920.192,1236.31L920.192,1236.65C930.562,1241.15 934.019,1250.83 934.019,1265L934.019,1285.74C934.019,1292.31 934.365,1297.15 936.439,1301.99L915.352,1301.99Z" style="fill-rule:nonzero;"/>
                    <path d="M892.192,1187.57L892.192,1228.7L900.488,1228.7C908.439,1228.7 912.933,1225.25 912.933,1214.53L912.933,1201.05C912.933,1191.37 909.822,1187.22 902.217,1187.22L892.192,1187.57ZM915.352,1301.99C914.315,1298.53 913.278,1296.46 913.278,1285.39L913.278,1264.31C913.278,1251.86 909.13,1247.37 899.451,1247.37L892.192,1247.37L892.192,1301.99L871.106,1301.99L871.106,1168.21L902.908,1168.21C924.686,1168.21 934.019,1178.23 934.019,1198.98L934.019,1209.35C934.019,1223.17 929.525,1231.81 920.192,1236.31L920.192,1236.65C930.562,1241.15 934.019,1250.83 934.019,1265L934.019,1285.74C934.019,1292.31 934.365,1297.15 936.439,1301.99L915.352,1301.99Z" style="fill-rule:nonzero;"/>
                    <path d="M892.192,1187.57L892.192,1228.7L900.488,1228.7C908.439,1228.7 912.933,1225.25 912.933,1214.53L912.933,1201.05C912.933,1191.37 909.822,1187.22 902.217,1187.22L892.192,1187.57ZM915.352,1301.99C914.315,1298.53 913.278,1296.46 913.278,1285.39L913.278,1264.31C913.278,1251.86 909.13,1247.37 899.451,1247.37L892.192,1247.37L892.192,1301.99L871.106,1301.99L871.106,1168.21L902.908,1168.21C924.686,1168.21 934.019,1178.23 934.019,1198.98L934.019,1209.35C934.019,1223.17 929.525,1231.81 920.192,1236.31L920.192,1236.65C930.562,1241.15 934.019,1250.83 934.019,1265L934.019,1285.74C934.019,1292.31 934.365,1297.15 936.439,1301.99L915.352,1301.99Z" style="fill-rule:nonzero;"/>
                    <path d="M967.204,1271.22C967.204,1280.9 971.352,1284.36 977.92,1284.36C984.488,1284.36 988.982,1280.56 988.982,1271.22L988.982,1198.98C988.982,1189.3 984.834,1185.84 977.92,1185.84C971.352,1185.84 967.204,1189.64 967.204,1198.98L967.204,1271.22ZM946.463,1200.36C946.463,1178.93 957.871,1166.83 978.266,1166.83C999.006,1166.83 1010.07,1178.93 1010.07,1200.36L1010.07,1269.84C1010.07,1291.27 998.661,1303.37 978.266,1303.37C957.525,1303.37 946.463,1291.27 946.463,1269.84L946.463,1200.36Z" style="fill-rule:nonzero;"/>
                    <path d="M967.204,1271.22C967.204,1280.9 971.352,1284.36 977.92,1284.36C984.488,1284.36 988.982,1280.56 988.982,1271.22L988.982,1198.98C988.982,1189.3 984.834,1185.84 977.92,1185.84C971.352,1185.84 967.204,1189.64 967.204,1198.98L967.204,1271.22ZM946.463,1200.36C946.463,1178.93 957.871,1166.83 978.266,1166.83C999.006,1166.83 1010.07,1178.93 1010.07,1200.36L1010.07,1269.84C1010.07,1291.27 998.661,1303.37 978.266,1303.37C957.525,1303.37 946.463,1291.27 946.463,1269.84L946.463,1200.36Z" style="fill-rule:nonzero;"/>
                    <path d="M967.204,1271.22C967.204,1280.9 971.352,1284.36 977.92,1284.36C984.488,1284.36 988.982,1280.56 988.982,1271.22L988.982,1198.98C988.982,1189.3 984.834,1185.84 977.92,1185.84C971.352,1185.84 967.204,1189.64 967.204,1198.98L967.204,1271.22ZM946.463,1200.36C946.463,1178.93 957.871,1166.83 978.266,1166.83C999.006,1166.83 1010.07,1178.93 1010.07,1200.36L1010.07,1269.84C1010.07,1291.27 998.661,1303.37 978.266,1303.37C957.525,1303.37 946.463,1291.27 946.463,1269.84L946.463,1200.36Z" style="fill-rule:nonzero;"/>
                    <path d="M1043.94,1168.21L1043.94,1271.22C1043.94,1280.9 1048.09,1284.36 1055.01,1284.36C1061.57,1284.36 1066.07,1280.9 1066.07,1271.22L1066.07,1168.21L1085.77,1168.21L1085.77,1270.18C1085.77,1291.62 1075.06,1303.71 1054.32,1303.71C1033.57,1303.71 1022.86,1291.62 1022.86,1270.18L1022.86,1168.21L1043.94,1168.21" style="fill-rule:nonzero;"/>
                    <path d="M1120.68,1187.57L1120.68,1232.85L1130.71,1232.85C1137.28,1232.85 1141.08,1229.74 1141.08,1220.41L1141.08,1200.36C1141.08,1190.68 1137.62,1187.91 1130.71,1187.91L1120.68,1187.91L1120.68,1187.57ZM1162.17,1201.39L1162.17,1218.68C1162.17,1240.11 1151.8,1251.86 1130.71,1251.86L1120.68,1251.86L1120.68,1301.99L1099.6,1301.99L1099.6,1168.21L1130.71,1168.21C1151.8,1168.21 1162.17,1179.96 1162.17,1201.39Z" style="fill-rule:nonzero;"/>
                    <path d="M1120.68,1187.57L1120.68,1232.85L1130.71,1232.85C1137.28,1232.85 1141.08,1229.74 1141.08,1220.41L1141.08,1200.36C1141.08,1190.68 1137.62,1187.91 1130.71,1187.91L1120.68,1187.91L1120.68,1187.57ZM1162.17,1201.39L1162.17,1218.68C1162.17,1240.11 1151.8,1251.86 1130.71,1251.86L1120.68,1251.86L1120.68,1301.99L1099.6,1301.99L1099.6,1168.21L1130.71,1168.21C1151.8,1168.21 1162.17,1179.96 1162.17,1201.39Z" style="fill-rule:nonzero;"/>
                    <path d="M1120.68,1187.57L1120.68,1232.85L1130.71,1232.85C1137.28,1232.85 1141.08,1229.74 1141.08,1220.41L1141.08,1200.36C1141.08,1190.68 1137.62,1187.91 1130.71,1187.91L1120.68,1187.91L1120.68,1187.57ZM1162.17,1201.39L1162.17,1218.68C1162.17,1240.11 1151.8,1251.86 1130.71,1251.86L1120.68,1251.86L1120.68,1301.99L1099.6,1301.99L1099.6,1168.21L1130.71,1168.21C1151.8,1168.21 1162.17,1179.96 1162.17,1201.39Z" style="fill-rule:nonzero;"/>
                </g>
            </g>
        </g>
    </g>
    <g transform="matrix(2.08333,0,0,2.08333,1223.7,-742.909)">
        <g transform="matrix(136,0,0,136,89.1205,875.596)">
            <path d="M0.02,-0L0.181,-0L0.22,-0.249L0.342,-0.249C0.436,-0.249 0.512,-0.27 0.571,-0.312C0.629,-0.355 0.665,-0.411 0.679,-0.481C0.693,-0.551 0.678,-0.607 0.635,-0.649C0.591,-0.69 0.522,-0.711 0.428,-0.711L0.145,-0.711L0.02,-0ZM0.245,-0.359L0.281,-0.601L0.403,-0.601C0.451,-0.601 0.484,-0.589 0.501,-0.566C0.518,-0.543 0.523,-0.515 0.517,-0.481C0.511,-0.447 0.497,-0.418 0.474,-0.395C0.452,-0.371 0.416,-0.359 0.367,-0.359L0.245,-0.359Z" style="fill-rule:nonzero;"/>
        </g>
        <g transform="matrix(136,0,0,136,187.864,875.596)">
            <path d="M0.02,-0L0.181,-0L0.233,-0.311L0.55,-0.311L0.498,-0L0.66,-0L0.785,-0.711L0.624,-0.711L0.576,-0.422L0.259,-0.422L0.306,-0.711L0.145,-0.711L0.02,-0Z" style="fill-rule:nonzero;"/>
        </g>
        <g transform="matrix(136,0,0,136,301.925,875.596)">
            <path d="M0.02,-0L0.181,-0L0.22,-0.249L0.342,-0.249C0.436,-0.249 0.512,-0.27 0.571,-0.312C0.629,-0.355 0.665,-0.411 0.679,-0.481C0.693,-0.551 0.678,-0.607 0.635,-0.649C0.591,-0.69 0.522,-0.711 0.428,-0.711L0.145,-0.711L0.02,-0ZM0.245,-0.359L0.281,-0.601L0.403,-0.601C0.451,-0.601 0.484,-0.589 0.501,-0.566C0.518,-0.543 0.523,-0.515 0.517,-0.481C0.511,-0.447 0.497,-0.418 0.474,-0.395C0.452,-0.371 0.416,-0.359 0.367,-0.359L0.245,-0.359Z" style="fill-rule:nonzero;"/>
        </g>
        <g transform="matrix(48,0,0,48,89.1205,947.596)">
            <path d="M0.083,-0L0.329,-0C0.431,-0 0.516,-0.03 0.584,-0.091C0.652,-0.152 0.687,-0.233 0.687,-0.335L0.687,-0.375C0.687,-0.478 0.652,-0.559 0.584,-0.62C0.516,-0.681 0.431,-0.711 0.329,-0.711L0.083,-0.711L0.083,-0ZM0.219,-0.1L0.219,-0.611L0.329,-0.611C0.395,-0.611 0.448,-0.59 0.487,-0.549C0.527,-0.507 0.547,-0.449 0.547,-0.375L0.547,-0.335C0.547,-0.262 0.527,-0.204 0.487,-0.162C0.448,-0.12 0.395,-0.1 0.329,-0.1L0.219,-0.1Z" style="fill-rule:nonzero;"/>
        </g>
        <g transform="matrix(48,0,0,48,126.366,947.596)">
            <path d="M0.083,-0L0.591,-0L0.591,-0.1L0.219,-0.1L0.219,-0.317L0.539,-0.317L0.539,-0.417L0.219,-0.417L0.219,-0.611L0.586,-0.611L0.586,-0.711L0.083,-0.711L0.083,-0Z" style="fill-rule:nonzero;"/>
        </g>
        <g transform="matrix(48,0,0,48,157.963,947.596)">
            <path d="M-0.011,-0.711L0.248,0.003L0.393,0.003L0.652,-0.711L0.528,-0.711L0.353,-0.211C0.348,-0.199 0.345,-0.188 0.342,-0.176C0.338,-0.165 0.335,-0.153 0.333,-0.141L0.328,-0.141C0.326,-0.153 0.323,-0.165 0.319,-0.176C0.316,-0.188 0.313,-0.199 0.308,-0.211L0.135,-0.711L-0.011,-0.711Z" style="fill-rule:nonzero;"/>
        </g>
        <g transform="matrix(48,0,0,48,190.345,947.596)">
            <path d="M0.083,-0L0.591,-0L0.591,-0.1L0.219,-0.1L0.219,-0.317L0.539,-0.317L0.539,-0.417L0.219,-0.417L0.219,-0.611L0.586,-0.611L0.586,-0.711L0.083,-0.711L0.083,-0Z" style="fill-rule:nonzero;"/>
        </g>
        <g transform="matrix(48,0,0,48,221.941,947.596)">
            <path d="M0.083,-0L0.567,-0L0.567,-0.1L0.219,-0.1L0.219,-0.711L0.083,-0.711L0.083,-0Z" style="fill-rule:nonzero;"/>
        </g>
        <g transform="matrix(48,0,0,48,249.823,947.596)">
            <path d="M0.055,-0.335C0.055,-0.225 0.087,-0.139 0.149,-0.078C0.211,-0.016 0.292,0.015 0.39,0.015C0.489,0.015 0.57,-0.016 0.632,-0.078C0.695,-0.139 0.726,-0.225 0.726,-0.335L0.726,-0.375C0.726,-0.486 0.695,-0.572 0.632,-0.633C0.57,-0.695 0.489,-0.726 0.39,-0.726C0.292,-0.726 0.211,-0.695 0.149,-0.633C0.087,-0.572 0.055,-0.486 0.055,-0.375L0.055,-0.335ZM0.195,-0.335L0.195,-0.375C0.195,-0.452 0.213,-0.513 0.248,-0.556C0.283,-0.6 0.331,-0.622 0.39,-0.622C0.45,-0.622 0.497,-0.6 0.533,-0.556C0.568,-0.513 0.586,-0.452 0.586,-0.375L0.586,-0.335C0.586,-0.259 0.568,-0.198 0.533,-0.155C0.498,-0.111 0.45,-0.089 0.39,-0.089C0.331,-0.089 0.284,-0.111 0.248,-0.155C0.213,-0.198 0.195,-0.259 0.195,-0.335Z" style="fill-rule:nonzero;"/>
        </g>
        <g transform="matrix(48,0,0,48,288.955,947.596)">
            <path d="M0.083,-0L0.219,-0L0.219,-0.258L0.353,-0.258C0.443,-0.258 0.512,-0.279 0.56,-0.321C0.608,-0.362 0.632,-0.417 0.632,-0.486C0.632,-0.554 0.608,-0.609 0.56,-0.65C0.512,-0.691 0.443,-0.711 0.353,-0.711L0.083,-0.711L0.083,-0ZM0.219,-0.358L0.219,-0.611L0.352,-0.611C0.405,-0.611 0.442,-0.599 0.464,-0.575C0.485,-0.551 0.496,-0.521 0.496,-0.486C0.496,-0.45 0.485,-0.42 0.464,-0.395C0.442,-0.37 0.405,-0.358 0.353,-0.358L0.219,-0.358Z" style="fill-rule:nonzero;"/>
        </g>
        <g transform="matrix(48,0,0,48,322.369,947.596)">
            <path d="M0.083,-0L0.591,-0L0.591,-0.1L0.219,-0.1L0.219,-0.317L0.539,-0.317L0.539,-0.417L0.219,-0.417L0.219,-0.611L0.586,-0.611L0.586,-0.711L0.083,-0.711L0.083,-0Z" style="fill-rule:nonzero;"/>
        </g>
        <g transform="matrix(48,0,0,48,353.966,947.596)">
            <path d="M0.083,-0L0.219,-0L0.219,-0.268L0.347,-0.268C0.436,-0.268 0.505,-0.289 0.553,-0.33C0.601,-0.371 0.625,-0.424 0.625,-0.491C0.625,-0.558 0.601,-0.611 0.553,-0.651C0.504,-0.691 0.436,-0.711 0.347,-0.711L0.083,-0.711L0.083,-0ZM0.219,-0.367L0.219,-0.612L0.348,-0.612C0.4,-0.612 0.437,-0.6 0.457,-0.577C0.478,-0.554 0.488,-0.525 0.488,-0.491C0.488,-0.457 0.478,-0.428 0.457,-0.404C0.436,-0.379 0.4,-0.367 0.348,-0.367L0.219,-0.367ZM0.493,-0L0.65,-0L0.473,-0.334L0.324,-0.328L0.493,-0Z" style="fill-rule:nonzero;"/>
        </g>
        <g transform="matrix(48,0,0,48,89.1205,1019.6)">
            <path d="M0.083,-0L0.329,-0C0.431,-0 0.516,-0.03 0.584,-0.091C0.652,-0.152 0.687,-0.233 0.687,-0.335L0.687,-0.375C0.687,-0.478 0.652,-0.559 0.584,-0.62C0.516,-0.681 0.431,-0.711 0.329,-0.711L0.083,-0.711L0.083,-0ZM0.219,-0.1L0.219,-0.611L0.329,-0.611C0.395,-0.611 0.448,-0.59 0.487,-0.549C0.527,-0.507 0.547,-0.449 0.547,-0.375L0.547,-0.335C0.547,-0.262 0.527,-0.204 0.487,-0.162C0.448,-0.12 0.395,-0.1 0.329,-0.1L0.219,-0.1Z" style="fill-rule:nonzero;"/>
        </g>
        <g transform="matrix(48,0,0,48,125.874,1019.6)">
            <path d="M-0.001,-0L0.123,-0L0.296,-0.512C0.3,-0.524 0.304,-0.536 0.307,-0.547C0.311,-0.558 0.314,-0.569 0.316,-0.581L0.321,-0.581C0.324,-0.569 0.327,-0.558 0.33,-0.547C0.333,-0.536 0.337,-0.524 0.341,-0.512L0.514,-0L0.66,-0L0.403,-0.714L0.254,-0.714L-0.001,-0ZM0.119,-0.168L0.529,-0.167L0.493,-0.267L0.155,-0.268L0.119,-0.168Z" style="fill-rule:nonzero;"/>
        </g>
        <g transform="matrix(48,0,0,48,156.92,1019.6)">
            <path d="M0.252,-0L0.389,-0L0.389,-0.254L0.633,-0.711L0.5,-0.711L0.359,-0.434C0.354,-0.424 0.349,-0.414 0.345,-0.404C0.341,-0.394 0.337,-0.384 0.333,-0.375L0.328,-0.375C0.324,-0.384 0.32,-0.394 0.315,-0.404C0.311,-0.414 0.306,-0.424 0.301,-0.434L0.161,-0.711L0.006,-0.711L0.252,-0.251L0.252,-0Z" style="fill-rule:nonzero;"/>
        </g>
        <g transform="matrix(72,0,0,72,202.559,1019.6)">
            <path d="M0.031,-0L0.56,-0L0.56,-0.106L0.213,-0.106L0.41,-0.296C0.45,-0.335 0.482,-0.373 0.505,-0.409C0.529,-0.445 0.541,-0.486 0.541,-0.53C0.541,-0.585 0.519,-0.631 0.474,-0.669C0.43,-0.707 0.369,-0.726 0.293,-0.726C0.218,-0.726 0.155,-0.704 0.105,-0.662C0.055,-0.619 0.031,-0.564 0.031,-0.495L0.031,-0.49L0.17,-0.49L0.17,-0.495C0.172,-0.537 0.184,-0.569 0.207,-0.591C0.229,-0.613 0.258,-0.624 0.292,-0.624C0.326,-0.624 0.353,-0.615 0.373,-0.596C0.392,-0.578 0.402,-0.554 0.402,-0.525C0.402,-0.497 0.395,-0.471 0.38,-0.445C0.365,-0.42 0.342,-0.392 0.312,-0.362L0.031,-0.088L0.031,-0Z" style="fill-rule:nonzero;"/>
        </g>
        <g transform="matrix(72,0,0,72,246.948,1019.6)">
            <path d="M0.036,-0.244C0.036,-0.167 0.058,-0.104 0.102,-0.057C0.146,-0.009 0.209,0.015 0.291,0.015C0.372,0.015 0.435,-0.009 0.48,-0.057C0.524,-0.104 0.546,-0.167 0.546,-0.244L0.546,-0.467C0.546,-0.544 0.524,-0.607 0.48,-0.654C0.435,-0.702 0.372,-0.726 0.291,-0.726C0.209,-0.726 0.146,-0.702 0.102,-0.654C0.058,-0.607 0.036,-0.544 0.036,-0.467L0.036,-0.244ZM0.177,-0.239L0.177,-0.472C0.177,-0.516 0.185,-0.552 0.203,-0.581C0.22,-0.609 0.249,-0.624 0.291,-0.624C0.333,-0.624 0.362,-0.609 0.38,-0.581C0.397,-0.552 0.406,-0.516 0.406,-0.472L0.406,-0.239C0.406,-0.195 0.397,-0.159 0.38,-0.13C0.362,-0.102 0.333,-0.087 0.291,-0.087C0.249,-0.087 0.22,-0.102 0.203,-0.13C0.185,-0.159 0.177,-0.195 0.177,-0.239Z" style="fill-rule:nonzero;"/>
        </g>
        <g transform="matrix(72,0,0,72,291.337,1019.6)">
            <path d="M0.031,-0L0.56,-0L0.56,-0.106L0.213,-0.106L0.41,-0.296C0.45,-0.335 0.482,-0.373 0.505,-0.409C0.529,-0.445 0.541,-0.486 0.541,-0.53C0.541,-0.585 0.519,-0.631 0.474,-0.669C0.43,-0.707 0.369,-0.726 0.293,-0.726C0.218,-0.726 0.155,-0.704 0.105,-0.662C0.055,-0.619 0.031,-0.564 0.031,-0.495L0.031,-0.49L0.17,-0.49L0.17,-0.495C0.172,-0.537 0.184,-0.569 0.207,-0.591C0.229,-0.613 0.258,-0.624 0.292,-0.624C0.326,-0.624 0.353,-0.615 0.373,-0.596C0.392,-0.578 0.402,-0.554 0.402,-0.525C0.402,-0.497 0.395,-0.471 0.38,-0.445C0.365,-0.42 0.342,-0.392 0.312,-0.362L0.031,-0.088L0.031,-0Z" style="fill-rule:nonzero;"/>
        </g>
        <g transform="matrix(72,0,0,72,335.727,1019.6)">
            <path d="M0.351,-0L0.487,-0L0.487,-0.711L0.356,-0.711L0.011,-0.247L0.011,-0.157L0.579,-0.157L0.579,-0.268L0.414,-0.268L0.377,-0.26L0.147,-0.26L0.345,-0.535L0.351,-0.535L0.351,-0Z" style="fill-rule:nonzero;"/>
        </g>
    </g>
</svg>
